{"title":"Anchorman 2 2013 CAM-DTeCH","uid":9384108,"size":1698568224,"categoryP":"video","categoryS":"movies","magnet":"?xt=urn:btih:b953870edc14565bcd4650265a59d518d64fea9a&amp;dn=Anchorman+2+2013+CAM-DTeCH&amp;tr=udp%3A%2F%2Ftracker.openbittorrent.com%3A80&amp;tr=udp%3A%2F%2Fopen.demonii.com%3A1337&amp;tr=udp%3A%2F%2Ftracker.coppersurfer.tk%3A6969&amp;tr=udp%3A%2F%2Fexodus.desync.com%3A6969","seeders":31,"leechers":0,"uploader":"TeX","files":1,"time":1387773354,"description":" &lt;a href=&quot;http://lookpic.com/O/i2/404/CVbhwHSC.jpeg&quot; rel=&quot;nofollow&quot; target=&quot;_NEW&quot;&gt;http://lookpic.com/O/i2/404/CVbhwHSC.jpeg&lt;/a&gt;\n &lt;a href=&quot;\nhttp://www.imdb.com/title/tt1229340/&quot; rel=&quot;nofollow&quot; target=&quot;_NEW&quot;&gt;\nhttp://www.imdb.com/title/tt1229340/&lt;/a&gt;\n\nWith the 70s behind him, San Diego's top rated newsman, Ron Burgundy, returns to take New York's first 24-hour news channel by storm.\n\n\nGeneral\nComplete name                            : Anchorman 2 2013 CAM-DTeCH.avi\nFormat                                   : AVI\nFormat/Info                              : Audio Video Interleave\nFormat profile                           : OpenDML\nFile size                                : 1.58 GiB\nDuration                                 : 1h 51mn\nOverall bit rate                         : 2 031 Kbps\nWriting application                      : MEncoder version Beta 4.4.5 building on 20110111\n\nVideo\nID                                       : 0\nFormat                                   : MPEG-4 Visual\nFormat profile                           : Simple@L1\nFormat settings, BVOP                    : No\nFormat settings, QPel                    : No\nFormat settings, GMC                     : No warppoints\nFormat settings, Matrix                  : Default (H.263)\nCodec ID                                 : DX50\nCodec ID/Hint                            : DivX 5\nDuration                                 : 1h 51mn\nBit rate                                 : 1 800 Kbps\nWidth                                    : 720 pixels\nHeight                                   : 404 pixels\nDisplay aspect ratio                     : 16:9\nFrame rate                               : 29.970 fps\nColor space                              : YUV\nChroma subsampling                       : 4:2:0\nBit depth                                : 8 bits\nScan type                                : Progressive\nCompression mode                         : Lossy\nBits/(Pixel*Frame)                       : 0.206\nStream size                              : 1.40 GiB (89%)\nWriting library                          : DigiArty AV Encoder Core\n\nAudio\nID                                       : 1\nFormat                                   : MPEG Audio\nFormat version                           : Version 1\nFormat profile                           : Layer 2\nCodec ID                                 : 50\nDuration                                 : 1h 51mn\nBit rate mode                            : Constant\nBit rate                                 : 224 Kbps\nChannel(s)                               : 2 channels\nSampling rate                            : 48.0 KHz\nCompression mode                         : Lossy\nStream size                              : 179 MiB (11%)\nAlignment                                : Split accross interleaves\nInterleave, duration                     : 500 ms (14.98 video frames)\nInterleave, preload duration             : 500 ms\n","torrent":{"xt":"urn:btih:b953870edc14565bcd4650265a59d518d64fea9a","amp;dn":"Anchorman+2+2013+CAM-DTeCH","amp;tr":["udp%3A%2F%2Ftracker.openbittorrent.com%3A80","udp%3A%2F%2Fopen.demonii.com%3A1337","udp%3A%2F%2Ftracker.coppersurfer.tk%3A6969","udp%3A%2F%2Fexodus.desync.com%3A6969"],"infoHash":"b953870edc14565bcd4650265a59d518d64fea9a","infoHashBuffer":{"type":"Buffer","data":[185,83,135,14,220,20,86,91,205,70,80,38,90,89,213,24,214,79,234,154]},"announce":[],"urlList":[]}}